<?xml version="1.0" standalone="no"?>
<!DOCTYPE svg PUBLIC "-//W3C//DTD SVG 20010904//EN"
 "http://www.w3.org/TR/2001/REC-SVG-20010904/DTD/svg10.dtd">
<svg version="1.0" xmlns="http://www.w3.org/2000/svg"
 width="135.000000pt" height="135.000000pt" viewBox="0 0 135.000000 135.000000"
 preserveAspectRatio="xMidYMid meet">
<metadata>
Created by potrace 1.11, written by Peter Selinger 2001-2013
</metadata>
<g transform="translate(0.000000,135.000000) scale(0.100000,-0.100000)"
fill="#000000" stroke="none">
<path d="M666 1315 c2 -25 -26 -52 -40 -38 -4 4 -9 -3 -13 -15 -3 -12 -9 -20
-13 -17 -4 2 -17 -5 -28 -16 -12 -11 -22 -15 -22 -10 0 6 10 16 22 22 l22 12
-30 24 c-36 30 -69 49 -60 35 3 -5 -1 -13 -10 -16 -8 -3 -12 -10 -9 -16 3 -5
1 -10 -4 -10 -6 0 -11 -8 -11 -17 0 -38 -14 -45 -56 -26 -54 24 -74 24 -76 2
-4 -47 -2 -52 18 -55 17 -3 21 1 20 19 -1 17 4 22 24 22 26 0 36 -26 12 -31
-7 -1 -8 0 -2 3 16 8 12 19 -9 20 -13 1 -18 -5 -17 -20 1 -18 -4 -22 -26 -21
-17 1 -28 -4 -28 -12 0 -8 7 -11 18 -8 13 5 14 4 3 -4 -13 -10 -44 -8 -83 4
-14 4 -17 1 -12 -13 5 -17 5 -17 -6 0 -12 19 -40 23 -40 6 0 -5 6 -7 13 -3 9
6 9 4 -1 -8 -15 -18 -7 -78 11 -90 9 -6 9 -8 -1 -8 -7 0 -11 -4 -7 -9 6 -11
-33 -36 -43 -27 -3 3 0 6 7 6 7 0 9 4 6 10 -4 6 1 7 12 3 11 -4 15 -2 10 3 -5
5 -24 9 -42 9 -31 1 -33 -1 -28 -26 3 -15 1 -29 -4 -32 -5 -3 -9 6 -8 20 0 15
-7 28 -15 30 -13 4 -13 3 0 -6 12 -8 12 -11 1 -11 -11 0 -11 -3 -1 -15 7 -8
10 -15 6 -15 -4 0 1 -14 9 -30 19 -38 16 -43 -35 -60 -51 -17 -55 -22 -35 -60
13 -25 20 -30 38 -24 22 6 22 6 2 -11 -15 -12 -16 -15 -4 -12 27 9 11 -29 -18
-42 -14 -7 -23 -15 -19 -18 3 -3 -4 -11 -16 -17 -26 -14 -35 -36 -14 -36 9 0
16 -4 16 -10 0 -5 6 -10 14 -10 8 0 17 -7 20 -16 4 -10 12 -14 23 -10 10 4 14
4 10 0 -4 -4 -1 -14 6 -22 8 -10 8 -13 1 -9 -14 8 -74 -56 -74 -79 0 -14 29
-29 46 -24 4 1 10 -2 13 -7 3 -4 15 -13 25 -19 11 -6 22 -16 24 -24 3 -7 0
-10 -7 -6 -15 9 -34 -40 -25 -67 4 -13 2 -17 -5 -13 -6 4 -11 2 -11 -5 0 -6 8
-9 20 -6 11 3 22 2 24 -2 3 -4 19 -8 37 -9 41 -3 42 -4 30 -36 -8 -19 -7 -26
2 -27 6 -1 18 -2 26 -3 16 -1 24 -33 11 -41 -5 -3 -7 3 -5 13 2 15 -2 19 -19
19 -16 0 -22 -6 -24 -22 -1 -21 2 -23 36 -19 20 3 45 6 54 7 9 1 14 6 11 12
-3 5 0 5 7 -2 7 -6 14 -34 15 -62 0 -28 4 -54 8 -58 4 -3 24 2 45 12 36 18
108 33 85 18 -8 -6 -8 -18 2 -47 18 -51 27 -59 51 -41 16 13 17 16 4 25 -9 6
-10 10 -3 10 6 0 15 -5 18 -11 10 -16 45 20 38 39 -4 15 -3 15 6 2 10 -13 12
-13 20 0 6 8 13 11 18 7 4 -5 1 -12 -7 -17 -11 -7 -9 -16 14 -49 26 -38 56
-54 56 -32 0 6 11 22 25 37 14 15 24 33 21 40 -3 7 2 10 14 7 10 -3 21 -11 24
-19 3 -8 12 -11 21 -8 10 4 15 2 13 -6 -2 -6 7 -19 20 -27 21 -15 23 -14 37
20 19 46 19 48 -2 41 -14 -4 -13 -2 2 7 11 7 29 22 39 33 14 15 17 16 13 5 -7
-20 34 -42 60 -32 11 4 14 3 9 -5 -4 -7 -1 -12 7 -12 15 0 31 55 21 71 -12 20
6 44 36 45 16 1 28 -2 25 -6 -2 -3 12 -6 31 -6 18 1 34 4 34 8 0 8 -15 11 -40
9 -13 -2 -13 0 -1 8 8 5 20 7 27 4 21 -8 6 49 -16 67 -19 14 -19 15 8 17 15 2
36 5 47 7 11 3 24 5 28 5 5 1 5 6 1 12 -5 8 -1 8 13 0 11 -6 23 -8 26 -5 7 7
-5 49 -32 109 -12 26 -19 50 -16 53 3 3 5 0 5 -7 0 -7 5 -9 12 -5 8 5 9 2 5
-9 -4 -11 -1 -17 8 -17 8 0 15 8 16 18 0 10 3 12 6 5 7 -18 33 -16 33 1 0 9 8
13 23 10 12 -2 16 -2 9 2 -6 3 -10 9 -7 14 2 4 -7 20 -20 34 -14 15 -25 32
-25 37 0 6 -10 8 -22 4 l-23 -7 23 17 c12 9 20 21 17 26 -3 5 0 6 8 3 8 -3 28
7 46 22 l32 26 -30 27 c-49 44 -59 50 -65 44 -3 -4 -6 -2 -6 4 0 5 11 20 25
33 14 13 23 30 21 37 -3 7 0 12 6 10 21 -4 20 31 -1 43 -14 7 -21 7 -21 0 0
-5 -5 -10 -11 -10 -6 0 -8 7 -5 16 4 11 1 14 -13 9 -11 -3 -21 0 -24 9 -6 16
2 58 13 66 4 3 10 15 14 27 5 16 2 25 -15 33 -13 7 -19 8 -15 2 3 -6 2 -13 -4
-17 -5 -3 -10 0 -10 8 0 18 -31 17 -46 -2 -9 -11 -12 -12 -19 -1 -5 9 -4 11 3
6 7 -4 12 -2 12 3 0 6 -3 11 -8 11 -11 0 -9 64 3 72 5 4 7 10 3 13 -8 9 -36
-7 -37 -20 -1 -5 -11 -10 -24 -10 -17 1 -21 6 -20 22 2 15 -2 21 -11 17 -18
-7 -25 6 -28 52 -2 22 -10 45 -18 52 -8 8 -9 11 -2 7 6 -3 12 -1 12 4 0 15
-12 14 -65 -9 -26 -11 -56 -20 -66 -20 -11 0 -18 -4 -14 -9 3 -5 2 -12 -3 -15
-5 -3 -9 2 -9 11 0 9 9 18 19 21 10 2 18 6 18 7 0 10 -40 95 -45 95 -3 0 -18
-12 -32 -27 -15 -16 -22 -21 -18 -13 5 8 -3 4 -18 -10 -25 -24 -41 -29 -42
-12 -2 16 -42 72 -48 65 -4 -3 -7 -1 -7 5 0 7 -4 12 -9 12 -4 0 -7 -11 -5 -25z
m-126 -50 c0 -9 6 -12 18 -9 14 5 15 4 2 -5 -11 -8 -18 -7 -26 4 -6 8 -15 11
-19 7 -5 -4 -5 -1 -1 6 10 17 26 15 26 -3z m167 9 c-2 -3 -17 -7 -33 -10 -17
-2 -24 -1 -17 4 13 8 58 14 50 6z m126 -1 c-20 -7 -15 -19 7 -20 13 -1 18 2
14 9 -4 7 -2 8 5 4 6 -4 9 -12 6 -17 -6 -9 -40 -7 -51 3 -9 9 5 28 19 27 9 0
9 -2 0 -6z m-327 -45 c-3 -24 -21 -35 -31 -19 -3 6 0 9 7 6 9 -4 14 2 15 15 1
12 -2 18 -9 14 -7 -4 -8 -2 -4 5 11 17 26 3 22 -21z m209 24 c-15 -11 -19 -46
-4 -36 8 4 10 3 5 -5 -16 -26 -28 7 -17 47 1 1 7 2 14 2 7 0 8 -3 2 -8z m89
-8 c3 -8 2 -12 -4 -9 -6 3 -10 10 -10 16 0 14 7 11 14 -7z m-159 -15 c-5 -15
-4 -19 4 -15 6 4 14 0 17 -8 3 -9 10 -14 14 -11 5 3 12 0 16 -7 4 -7 4 -10 -1
-6 -4 4 -14 0 -22 -10 -8 -9 -12 -12 -9 -5 8 15 -4 44 -14 38 -12 -8 -21 11
-14 29 9 24 16 19 9 -5z m32 -1 c-3 -8 -6 -5 -6 6 -1 11 2 17 5 13 3 -3 4 -12
1 -19z m-297 8 c0 -2 -8 -10 -17 -17 -16 -13 -17 -12 -4 4 13 16 21 21 21 13z
m147 -18 c-3 -8 -6 -5 -6 6 -1 11 2 17 5 13 3 -3 4 -12 1 -19z m253 12 c0 -5
-2 -10 -4 -10 -3 0 -8 5 -11 10 -3 6 -1 10 4 10 6 0 11 -4 11 -10z m67 -6 c-3
-3 -12 -4 -19 -1 -8 3 -5 6 6 6 11 1 17 -2 13 -5z m138 -15 c-4 -5 -12 -9 -18
-8 -9 0 -8 2 1 6 6 2 9 10 6 15 -4 7 -2 8 5 4 6 -4 9 -12 6 -17z m-175 1 c0
-5 -4 -10 -10 -10 -5 0 -10 5 -10 10 0 6 5 10 10 10 6 0 10 -4 10 -10z m140 0
c0 -5 -2 -10 -4 -10 -3 0 -8 5 -11 10 -3 6 -1 10 4 10 6 0 11 -4 11 -10z m53
-15 c-3 -9 -8 -14 -10 -11 -3 3 -2 9 2 15 9 16 15 13 8 -4z m-439 -7 c-3 -4
-11 -5 -19 -1 -21 7 -19 12 4 10 11 0 18 -5 15 -9z m267 -1 c-6 -8 -7 -18 -3
-22 4 -5 2 -5 -5 -1 -14 8 -6 36 9 36 7 0 6 -5 -1 -13z m96 -9 c-3 -8 -6 -5
-6 6 -1 11 2 17 5 13 3 -3 4 -12 1 -19z m60 -30 c2 -17 0 -19 -7 -8 -5 8 -6
18 -4 22 3 4 -2 8 -10 8 -9 0 -16 5 -16 10 0 22 36 -9 37 -32z m-537 28 c0 -3
-4 -8 -10 -11 -5 -3 -10 -1 -10 4 0 6 5 11 10 11 6 0 10 -2 10 -4z m95 -5 c3
-5 0 -13 -6 -17 -7 -4 -9 -3 -5 4 3 5 0 13 -6 15 -9 4 -10 6 -1 6 6 1 14 -3
18 -8z m-125 -25 c-1 -5 4 -13 12 -18 10 -8 10 -9 -2 -5 -8 2 -14 10 -12 17 2
9 -5 10 -25 6 -21 -5 -24 -4 -13 4 17 11 42 9 40 -4z m530 4 c0 -5 -4 -10 -10
-10 -5 0 -10 5 -10 10 0 6 5 10 10 10 6 0 10 -4 10 -10z m-22 -35 c-3 -3 -9 2
-12 12 -6 14 -5 15 5 6 7 -7 10 -15 7 -18z m34 3 c-7 -7 -12 -8 -12 -2 0 14
12 26 19 19 2 -3 -1 -11 -7 -17z m-671 -23 c5 4 12 -1 15 -9 3 -9 11 -13 17
-9 6 4 7 1 2 -7 -6 -10 -11 -9 -22 6 -8 10 -17 17 -21 14 -4 -3 -7 4 -8 15 -1
16 0 16 3 2 3 -9 9 -15 14 -12z m120 18 c13 -16 12 -17 -3 -4 -10 7 -18 15
-18 17 0 8 8 3 21 -13z m-161 -14 c0 -5 -8 -9 -17 -8 -11 0 -13 3 -5 6 6 2 9
10 6 15 -4 7 -2 8 4 4 7 -4 12 -11 12 -17z m75 11 c3 -5 1 -10 -4 -10 -6 0
-11 5 -11 10 0 6 2 10 4 10 3 0 8 -4 11 -10z m-56 -33 c-2 -1 -13 -9 -24 -17
-19 -14 -19 -14 -6 3 7 9 18 17 24 17 6 0 8 -1 6 -3z m764 -17 c-10 -11 -19
-20 -21 -20 -1 0 2 9 8 20 6 11 15 20 20 20 6 0 2 -9 -7 -20z m54 4 c-3 -3
-12 -4 -19 -1 -8 3 -5 6 6 6 11 1 17 -2 13 -5z m-797 -14 c0 -5 -7 -6 -17 -3
-12 5 -14 3 -8 -7 5 -9 4 -11 -4 -6 -6 4 -9 12 -6 17 8 12 35 12 35 -1z m751
-17 c-12 -20 -14 -14 -5 12 4 9 9 14 11 11 3 -2 0 -13 -6 -23z m71 20 c-6 -2
-9 -10 -6 -15 4 -7 2 -8 -5 -4 -13 9 -5 26 12 25 9 0 8 -2 -1 -6z m71 -76 c-3
-5 5 -6 18 -3 21 6 22 6 6 -4 -21 -14 -30 -8 -34 23 -2 17 -1 19 6 7 5 -8 7
-18 4 -23z m-26 1 c-3 -8 -6 -5 -6 6 -1 11 2 17 5 13 3 -3 4 -12 1 -19z m-27
2 c0 -5 -2 -10 -4 -10 -3 0 -8 5 -11 10 -3 6 -1 10 4 10 6 0 11 -4 11 -10z
m-905 -10 c3 -5 0 -12 -6 -16 -7 -4 -9 -3 -5 4 4 7 -1 10 -14 9 -22 -1 -27
-13 -7 -20 9 -4 9 -6 0 -6 -14 -1 -26 16 -19 27 6 11 45 12 51 2z m13 -36
c-12 -12 -17 -13 -23 -3 -5 7 -4 10 2 6 6 -4 14 0 17 9 4 9 9 14 13 10 4 -3 0
-14 -9 -22z m912 16 c0 -5 -4 -10 -10 -10 -5 0 -10 5 -10 10 0 6 5 10 10 10 6
0 10 -4 10 -10z m-980 -20 c0 -5 -4 -10 -10 -10 -5 0 -10 5 -10 10 0 6 5 10
10 10 6 0 10 -4 10 -10z m1023 4 c-7 -3 -9 -13 -6 -22 4 -14 3 -14 -5 -2 -12
16 -7 30 11 29 9 0 9 -2 0 -5z m-986 -20 c-3 -3 -12 -4 -19 -1 -8 3 -5 6 6 6
11 1 17 -2 13 -5z m-64 -49 c4 -8 3 -16 -2 -19 -14 -9 -45 1 -49 15 -2 8 0 10
5 4 4 -5 17 -12 27 -13 17 -3 18 -2 7 12 -8 9 -9 16 -3 16 5 0 12 -7 15 -15z
m1082 -16 c-6 -9 -40 -7 -51 4 -4 3 6 4 21 1 19 -3 24 -1 19 7 -4 8 -3 9 5 5
6 -4 9 -12 6 -17z m-1141 -5 c3 -8 2 -12 -4 -9 -6 3 -10 10 -10 16 0 14 7 11
14 -7z m1206 6 c0 -5 -4 -10 -10 -10 -5 0 -10 5 -10 10 0 6 5 10 10 10 6 0 10
-4 10 -10z m-1110 -4 c0 -2 -7 -7 -16 -10 -8 -3 -12 -2 -9 4 6 10 25 14 25 6z
m987 -28 c-3 -8 -6 -5 -6 6 -1 11 2 17 5 13 3 -3 4 -12 1 -19z m93 18 c0 -2
-7 -6 -15 -10 -8 -3 -15 -1 -15 4 0 6 7 10 15 10 8 0 15 -2 15 -4z m-1133 -12
c-3 -3 -12 -4 -19 -1 -8 3 -5 6 6 6 11 1 17 -2 13 -5z m82 -8 c9 -11 9 -16 -1
-22 -7 -4 -10 -4 -6 1 4 4 3 14 -3 22 -6 7 -9 13 -6 13 2 0 10 -6 16 -14z
m1016 -25 c-1 -11 -4 -23 -7 -27 -4 -3 -5 6 -4 20 2 17 -2 26 -10 26 -8 0 -14
5 -14 10 0 7 6 7 18 1 10 -6 18 -19 17 -30z m-1041 21 c2 -4 0 -14 -6 -22 -8
-12 -9 -12 -4 3 4 12 0 17 -15 17 -11 0 -18 -4 -15 -8 2 -4 0 -14 -5 -22 -7
-11 -8 -8 -5 10 3 14 5 26 5 28 2 6 40 1 45 -6z m1075 -18 c-6 -8 -15 -12 -18
-8 -3 4 0 9 7 11 6 3 9 10 6 15 -4 7 -2 8 5 4 9 -6 9 -11 0 -22z m-69 2 c0 -3
-4 -8 -10 -11 -5 -3 -10 -1 -10 4 0 6 5 11 10 11 6 0 10 -2 10 -4z m-1065 -66
c-3 -5 -12 -10 -18 -10 -7 0 -6 4 3 10 19 12 23 12 15 0z m25 -20 c0 -5 -4
-10 -10 -10 -5 0 -10 5 -10 10 0 6 5 10 10 10 6 0 10 -4 10 -10z m558 -2 c7
-7 12 -21 12 -33 0 -12 -5 -26 -12 -33 -28 -28 -78 -7 -78 33 0 12 5 26 12 33
7 7 21 12 33 12 12 0 26 -5 33 -12z m552 2 c0 -5 -4 -10 -10 -10 -5 0 -10 5
-10 10 0 6 5 10 10 10 6 0 10 -4 10 -10z m-43 -25 c-9 -7 -14 -15 -10 -19 4
-4 -1 -4 -11 0 -15 6 -17 4 -11 -6 6 -9 4 -11 -5 -5 -10 6 -10 11 3 20 9 7 14
15 10 19 -4 4 1 4 11 0 15 -6 17 -4 11 6 -6 9 -4 11 5 5 10 -6 10 -11 -3 -20z
m66 10 c-3 -9 -8 -14 -10 -11 -3 3 -2 9 2 15 9 16 15 13 8 -4z m-1177 -23 c4
-24 -11 -38 -22 -21 -4 7 -3 9 4 5 7 -4 10 1 9 14 -2 25 -6 25 -24 3 -13 -16
-13 -16 -3 5 13 27 32 25 36 -6z m62 14 c-7 -8 -15 -12 -17 -11 -5 6 10 25 20
25 5 0 4 -6 -3 -14z m-41 -18 c-3 -8 -6 -5 -6 6 -1 11 2 17 5 13 3 -3 4 -12 1
-19z m1177 6 c3 -8 2 -12 -4 -9 -6 3 -10 10 -10 16 0 14 7 11 14 -7z m-1114
-4 c0 -5 -2 -10 -4 -10 -3 0 -8 5 -11 10 -3 6 -1 10 4 10 6 0 11 -4 11 -10z
m1067 4 c-3 -3 -12 -4 -19 -1 -8 3 -5 6 6 6 11 1 17 -2 13 -5z m31 -29 c-3 -3
-9 2 -12 12 -6 14 -5 15 5 6 7 -7 10 -15 7 -18z m-1124 3 c-3 -5 -10 -6 -15
-3 -5 4 -9 -2 -9 -11 0 -10 -3 -15 -6 -11 -11 10 3 34 20 34 8 0 13 -4 10 -9z
m1104 -9 c2 -8 0 -10 -5 -4 -4 6 -16 11 -25 13 -12 2 -16 -3 -13 -18 2 -11 0
-18 -5 -15 -6 4 -7 23 -1 42 3 10 46 -7 49 -18z m-1118 -69 c0 -5 -5 -10 -11
-10 -5 0 -7 5 -4 10 3 6 8 10 11 10 2 0 4 -4 4 -10z m1050 -21 c0 -14 -17 -10
-23 5 -4 10 -1 13 9 9 7 -3 14 -9 14 -14z m29 -5 c-11 -14 -10 -15 7 -12 10 1
23 8 27 13 5 6 7 4 5 -4 -4 -14 -35 -24 -50 -15 -4 3 -2 14 4 24 7 11 14 17
17 15 2 -3 -2 -12 -10 -21z m-1099 5 c12 -8 10 -9 -9 -4 -16 5 -21 4 -17 -4 4
-6 0 -14 -8 -17 -9 -3 -13 -10 -10 -15 3 -5 -3 -6 -12 -2 -11 4 -13 8 -6 11 7
2 10 8 7 13 -4 5 1 6 10 3 9 -4 15 -3 14 2 -4 26 6 30 31 13z m70 1 c0 -5 -5
-10 -11 -10 -5 0 -7 5 -4 10 3 6 8 10 11 10 2 0 4 -4 4 -10z m-30 -20 c0 -5
-4 -10 -10 -10 -5 0 -10 5 -10 10 0 6 5 10 10 10 6 0 10 -4 10 -10z m1000 1
c0 -6 -4 -12 -8 -15 -5 -3 -9 1 -9 9 0 8 4 15 9 15 4 0 8 -4 8 -9z m-1033 -17
c-3 -3 -12 -4 -19 -1 -8 3 -5 6 6 6 11 1 17 -2 13 -5z m1083 -4 c18 -12 2 -12
-25 0 -13 6 -15 9 -5 9 8 0 22 -4 30 -9z m-1069 -35 c9 -17 8 -18 -3 -4 -7 9
-23 15 -35 14 -12 -1 -20 2 -17 6 9 15 46 4 55 -16z m32 -52 c-4 -11 -3 -14 5
-9 7 4 16 -3 23 -18 7 -14 16 -23 22 -19 6 4 7 1 2 -7 -6 -10 -11 -9 -22 5 -7
11 -13 22 -13 27 0 4 -5 7 -12 6 -7 -2 -13 7 -14 19 -1 12 2 20 7 17 4 -2 5
-12 2 -21z m52 7 c-3 -5 -12 -10 -18 -10 -7 0 -6 4 3 10 19 12 23 12 15 0z
m947 -8 c-3 -10 -1 -13 6 -8 6 4 16 -3 22 -16 10 -21 10 -21 -3 -6 -8 10 -17
15 -20 11 -4 -3 -9 2 -13 11 -3 9 -11 13 -17 9 -5 -3 -7 -2 -4 4 10 16 36 11
29 -5z m-940 -24 c-7 -7 -12 -8 -12 -2 0 14 12 26 19 19 2 -3 -1 -11 -7 -17z
m903 2 c0 -7 -6 -14 -13 -16 -7 -1 -8 0 -2 3 5 2 10 9 10 14 0 6 -4 8 -8 5 -4
-2 -14 0 -22 5 -11 7 -8 8 10 6 14 -2 25 -10 25 -17z m-998 -10 c-4 -15 -1
-20 11 -18 10 2 21 8 25 13 5 6 7 4 4 -5 -4 -15 -47 -22 -47 -7 0 30 1 37 6
37 4 0 4 -9 1 -20z m1049 -22 c2 2 10 1 17 -1 6 -3 2 -4 -11 -4 -13 1 -28 11
-33 22 -10 20 -10 20 6 0 9 -11 18 -19 21 -17z m-33 -1 c3 -8 2 -20 -3 -26 -5
-9 -7 -4 -7 13 0 29 2 32 10 13z m-959 -22 c-4 -8 -8 -15 -10 -15 -2 0 -4 7
-4 15 0 8 4 15 10 15 5 0 7 -7 4 -15z m62 -40 c-7 -20 24 -16 42 5 11 13 12
12 3 -6 -10 -20 -51 -29 -51 -11 0 4 0 12 0 17 0 6 3 10 6 10 3 0 3 -7 0 -15z
m794 1 c-7 -7 -14 -6 -21 1 -9 9 -7 12 9 10 14 -1 18 -5 12 -11z m-15 -22 c14
-9 22 -20 19 -25 -3 -5 4 -9 15 -9 12 0 20 5 19 11 -2 6 4 14 12 16 12 4 12 3
2 -5 -8 -5 -13 -13 -13 -18 1 -5 -8 -9 -19 -9 -11 0 -20 4 -19 9 0 5 -12 17
-28 27 -15 10 -24 19 -20 19 4 0 19 -7 32 -16z m45 6 c0 -5 -4 -10 -10 -10 -5
0 -10 5 -10 10 0 6 5 10 10 10 6 0 10 -4 10 -10z m-845 -10 c3 -5 1 -10 -4
-10 -6 0 -11 5 -11 10 0 6 2 10 4 10 3 0 8 -4 11 -10z m52 -16 c-3 -3 -12 -4
-19 -1 -8 3 -5 6 6 6 11 1 17 -2 13 -5z m33 -8 c0 -3 -4 -8 -10 -11 -5 -3 -10
-1 -10 4 0 6 5 11 10 11 6 0 10 -2 10 -4z m614 -31 c-4 -10 0 -12 18 -8 13 3
21 3 18 0 -3 -3 -14 -7 -25 -9 -14 -2 -20 3 -21 19 -1 12 2 20 7 17 4 -2 6
-11 3 -19z m104 0 c-3 -3 -9 2 -12 12 -6 14 -5 15 5 6 7 -7 10 -15 7 -18z
m-633 -18 c6 -1 10 -11 10 -22 -1 -14 -7 -19 -21 -18 -17 2 -21 -3 -18 -22 1
-14 -1 -23 -5 -20 -4 2 -7 14 -6 27 2 16 8 22 21 21 13 -1 20 5 21 17 1 11 -3
19 -10 17 -6 -1 -12 7 -14 18 -3 18 -2 18 5 2 4 -10 12 -19 17 -20z m-54 0
c-10 -9 -11 -8 -5 6 3 10 9 15 12 12 3 -3 0 -11 -7 -18z m28 -10 c-2 -1 -13
-9 -24 -17 -19 -14 -19 -14 -6 3 7 9 18 17 24 17 6 0 8 -1 6 -3z m154 -14 c-5
-12 -3 -14 7 -8 9 5 11 4 6 -4 -4 -6 -12 -9 -17 -6 -12 8 -12 35 1 35 5 0 6
-7 3 -17z m387 2 c0 -8 -2 -15 -4 -15 -2 0 -6 7 -10 15 -3 8 -1 15 4 15 6 0
10 -7 10 -15z m60 2 c0 -8 -3 -16 -6 -20 -8 -8 -34 3 -34 15 0 6 8 4 17 -3 15
-12 16 -12 10 4 -3 9 -2 17 3 17 6 0 10 -6 10 -13z m-305 -18 c-4 -5 -12 -9
-18 -8 -9 0 -8 2 1 6 6 2 9 10 6 15 -4 7 -2 8 5 4 6 -4 9 -12 6 -17z m125 1
c0 -5 -4 -10 -10 -10 -5 0 -10 5 -10 10 0 6 5 10 10 10 6 0 10 -4 10 -10z
m-303 -20 c-4 -15 -1 -20 11 -18 10 2 21 8 25 13 5 6 7 4 4 -5 -4 -15 -47 -22
-47 -7 0 30 1 37 6 37 4 0 4 -9 1 -20z m-147 0 c0 -5 -4 -10 -10 -10 -5 0 -10
5 -10 10 0 6 5 10 10 10 6 0 10 -4 10 -10z m281 -13 c-10 -9 -11 -8 -5 6 3 10
9 15 12 12 3 -3 0 -11 -7 -18z m65 -5 c-2 -9 2 -21 8 -25 7 -6 6 -7 -4 -4 -8
2 -14 10 -12 16 1 6 -6 11 -16 11 -13 0 -18 -7 -18 -22 1 -15 -4 -22 -13 -20
-8 2 -11 -3 -8 -13 4 -8 2 -15 -4 -15 -6 0 -9 8 -7 18 2 9 10 16 17 14 8 -1
11 6 9 20 -2 17 3 24 20 26 13 2 20 8 16 14 -4 6 -2 8 4 5 5 -4 9 -15 8 -25z
m127 21 c-19 -7 -16 -19 6 -20 14 -1 18 3 14 13 -3 8 -1 14 5 14 6 0 9 -8 8
-17 -3 -19 -42 -27 -52 -12 -7 12 4 29 19 28 9 0 9 -2 0 -6z m117 -3 c0 -5 -4
-10 -10 -10 -5 0 -10 5 -10 10 0 6 5 10 10 10 6 0 10 -4 10 -10z m54 -5 c-4
-8 -8 -15 -10 -15 -2 0 -4 7 -4 15 0 8 4 15 10 15 5 0 7 -7 4 -15z m-43 -18
c-10 -9 -11 -8 -5 6 3 10 9 15 12 12 3 -3 0 -11 -7 -18z m-174 -23 c-4 -15 -5
-14 -6 4 -1 15 -5 21 -13 16 -7 -5 -8 -3 -3 5 10 18 28 -2 22 -25z m-250 0
c-3 -3 -12 -4 -19 -1 -8 3 -5 6 6 6 11 1 17 -2 13 -5z m295 -1 c-6 -2 -9 -10
-6 -15 4 -7 2 -8 -5 -4 -13 9 -5 26 12 25 9 0 8 -2 -1 -6z m-325 -34 c2 -18 1
-20 -6 -9 -5 8 -8 17 -5 21 2 4 -1 10 -6 12 -6 3 -5 4 1 3 7 -1 14 -13 16 -27z
m63 21 c0 -5 -4 -10 -10 -10 -5 0 -10 5 -10 10 0 6 5 10 10 10 6 0 10 -4 10
-10z m118 -16 c0 -17 -3 -22 -8 -13 -5 6 -6 18 -3 26 8 19 11 16 11 -13z m32
1 c-7 -9 -15 -13 -19 -10 -3 3 1 10 9 15 21 14 24 12 10 -5z m134 0 c3 -8 1
-15 -4 -15 -6 0 -10 7 -10 15 0 8 2 15 4 15 2 0 6 -7 10 -15z m-184 -25 c0 -5
-5 -10 -11 -10 -5 0 -7 5 -4 10 3 6 8 10 11 10 2 0 4 -4 4 -10z"/>
<path d="M636 1304 c-8 -22 -8 -24 7 -18 8 3 14 11 14 19 0 20 -13 19 -21 -1z"/>
<path d="M1063 1120 c0 -18 6 -26 19 -27 10 -1 16 2 13 7 -3 5 7 16 22 24 32
17 31 17 -18 20 -32 2 -36 0 -36 -24z"/>
</g>
</svg>
